<?xml version="1.0" encoding="utf-8"?><svg viewBox="0 0 502.66 502.66" xmlns="http://www.w3.org/2000/svg" xmlns:xlink="http://www.w3.org/1999/xlink"><style>:root>svg{display:none}:root>svg:target{display:block}</style><svg viewBox="0 0 20 19" id="cart" xmlns="http://www.w3.org/2000/svg"><path d="M20 6.579h-3.396L13.036.319a.608.608 0 00-.858-.225.678.678 0 00-.214.902l3.182 5.583H4.854L8.036.996a.678.678 0 00-.214-.902.608.608 0 00-.858.225L3.396 6.58H0v1.316h1.357l1.587 8.915c.166.934.941 1.611 1.844 1.611h10.424c.902 0 1.678-.677 1.843-1.61l1.588-8.916H20V6.579zm-4.174 9.99a.634.634 0 01-.614.536H4.788a.634.634 0 01-.615-.537L2.628 7.895h14.744l-1.546 8.674z"/></svg><svg viewBox="0 -960 960 960" id="eye" xmlns="http://www.w3.org/2000/svg"><path d="M480.118-330Q551-330 600.5-379.618q49.5-49.617 49.5-120.5Q650-571 600.382-620.5q-49.617-49.5-120.5-49.5Q409-670 359.5-620.382q-49.5 49.617-49.5 120.5Q310-429 359.618-379.5q49.617 49.5 120.5 49.5zm-.353-58Q433-388 400.5-420.735q-32.5-32.736-32.5-79.5Q368-547 400.735-579.5q32.736-32.5 79.5-32.5Q527-612 559.5-579.265q32.5 32.736 32.5 79.5Q592-453 559.265-420.5q-32.736 32.5-79.5 32.5zM480-200q-146 0-264-83T40-500q58-134 176-217t264-83q146 0 264 83t176 217q-58 134-176 217t-264 83zm0-300zm-.169 240Q601-260 702.5-325.5 804-391 857-500q-53-109-154.331-174.5-101.332-65.5-222.5-65.5Q359-740 257.5-674.5 156-609 102-500q54 109 155.331 174.5 101.332 65.5 222.5 65.5z"/></svg><svg viewBox="0 0 502.664 502.664" id="icon" xmlns="http://www.w3.org/2000/svg"><path d="M153.821 358.226L0 274.337v-46.463l153.821-83.414v54.574L46.636 250.523l107.185 53.431v54.272zm26.273 29.358L282.103 115.08h32.227L212.084 387.584h-31.99zm168.749-29.358v-54.272l107.164-52.999-107.164-52.59v-53.927l153.821 83.522v46.183l-153.821 84.083z"/></svg></svg>